<svg width="39" height="39" viewBox="0 0 39 39" fill="none" xmlns="http://www.w3.org/2000/svg">
<circle cx="19.5" cy="19.5" r="19.5" fill="#312E81"/>
<path d="M27.7381 23.4299C27.5548 23.1266 27.3322 22.8233 27.0835 22.5018C26.4916 21.8168 26.0813 21.0127 25.8855 20.1541L25.6106 16.575C25.447 13.8026 23.6992 11 20.2232 11H18.77C15.2941 11 13.5332 13.8026 13.3564 16.5689L13.0815 20.1541C12.8866 21.0203 12.4765 21.8325 11.8836 22.526C11.661 22.8415 11.4385 23.1327 11.2879 23.4056C11.1263 23.6066 11.0285 23.8454 11.0053 24.0951C10.9822 24.3448 11.0347 24.5956 11.157 24.8191C11.2996 25.0539 11.5098 25.2474 11.764 25.378C12.0183 25.5087 12.3067 25.5714 12.5971 25.5592H17.6506C17.543 25.8341 17.5084 26.129 17.5498 26.4189C17.5912 26.7088 17.7074 26.9852 17.8885 27.2246C18.0696 27.4641 18.3103 27.6596 18.5902 27.7946C18.8702 27.9295 19.1811 28 19.4966 28C19.8122 28 20.1231 27.9295 20.403 27.7946C20.6829 27.6596 20.9237 27.4641 21.1048 27.2246C21.2859 26.9852 21.4021 26.7088 21.4435 26.4189C21.4848 26.129 21.4503 25.8341 21.3426 25.5592H26.3961C26.6892 25.5691 26.9795 25.5027 27.234 25.3676C27.4885 25.2325 27.6971 25.0341 27.8363 24.7948C27.9586 24.5814 28.0142 24.3406 27.9969 24.0994C27.9795 23.8583 27.8899 23.6264 27.7381 23.4299ZM20.1512 26.1658C20.1512 26.2858 20.1128 26.4031 20.0409 26.5029C19.969 26.6026 19.8667 26.6804 19.7471 26.7263C19.6275 26.7722 19.4959 26.7842 19.3689 26.7608C19.2419 26.7374 19.1253 26.6796 19.0337 26.5948C18.9422 26.5099 18.8798 26.4019 18.8546 26.2842C18.8293 26.1665 18.8423 26.0445 18.8918 25.9337C18.9414 25.8228 19.0253 25.7281 19.1329 25.6614C19.2406 25.5948 19.3671 25.5592 19.4966 25.5592C19.6702 25.5592 19.8367 25.6231 19.9595 25.7369C20.0823 25.8506 20.1512 26.0049 20.1512 26.1658ZM26.6972 24.2428C26.6972 24.2913 26.586 24.3459 26.4223 24.3459H12.5971C12.4335 24.3459 12.3484 24.2913 12.3222 24.2428C12.296 24.1943 12.3222 24.1275 12.3876 24.0305C12.5644 23.7514 12.7673 23.4602 12.9768 23.1691C13.6314 22.2955 14.286 21.3006 14.3842 20.239L14.6656 16.6538C14.8031 14.6034 15.9618 12.2133 18.77 12.2133H20.2232C23.0315 12.2133 24.1901 14.6034 24.3276 16.6599L24.6091 20.239C24.6876 21.3128 25.388 22.2955 26.0426 23.1691C26.2521 23.4602 26.455 23.7757 26.6645 24.0851C26.6854 24.1059 26.6995 24.1317 26.7053 24.1596C26.711 24.1875 26.7083 24.2163 26.6972 24.2428Z" fill="white"/>
</svg>
