<svg width="21" height="24" viewBox="0 0 21 24" fill="none" xmlns="http://www.w3.org/2000/svg">
<path d="M17.6571 16.2565C17.1711 15.607 16.503 15.1427 15.7249 14.9137L11.6 13.7007V12.5557C12.8133 11.8523 13.6916 10.6329 13.933 9.2H14.0529C14.906 9.2 15.6 8.506 15.6 7.65295V6.7471C15.6 6.16485 15.2766 5.6569 14.8 5.39295V3.9325C14.8 1.7641 13.0359 0 10.8675 0H7.5325C5.3641 0 3.6 1.7641 3.6 3.9325V5.3929C3.12345 5.65685 2.8 6.1648 2.8 6.74705V7.6529C2.8 8.506 3.494 9.2 4.34705 9.2H4.467C4.70845 10.6329 5.5867 11.8523 6.79995 12.5557V13.7007L2.675 14.9137C1.89695 15.1427 1.22885 15.607 0.74285 16.2565C0.2569 16.906 0 17.678 0 18.489V19.6V23.6C0 23.8209 0.1791 24 0.4 24H18C18.2209 24 18.4 23.8209 18.4 23.6V19.6V18.489C18.4 17.678 18.1431 16.906 17.6571 16.2565ZM14.8 6.74705V7.6529C14.8 8.06485 14.4649 8.39995 14.053 8.39995H14V5.99995H14.053C14.4649 6 14.8 6.33515 14.8 6.74705ZM4.4 8.4H4.34705C3.9351 8.4 3.6 8.06485 3.6 7.65295V6.7471C3.6 6.33515 3.93515 6.00005 4.34705 6.00005H4.4V8.4ZM4.4 5.10295V3.9325C4.4 2.2052 5.8052 0.8 7.5325 0.8H10.8675C12.5948 0.8 14 2.2052 14 3.9325V5.10295C14 4.4948 13.5052 4 12.8971 4H11.3091C11.2642 3.9364 11.2136 3.87555 11.1567 3.81865L10.9538 3.6157C10.7246 3.3865 10.7246 3.01355 10.9538 2.7843L11.0552 2.68285C11.2115 2.52665 11.2115 2.2734 11.0552 2.1172C10.899 1.961 10.6458 1.961 10.4896 2.1172L10.3881 2.21865C9.90385 2.7029 9.8533 3.45865 10.2357 4H9.7275C9.68255 3.93635 9.632 3.8755 9.5751 3.8186L9.37215 3.6157C9.14295 3.3865 9.14295 3.01355 9.3721 2.78435L9.4736 2.6829C9.62985 2.5267 9.62985 2.27345 9.47365 2.1172C9.31745 1.961 9.0642 1.96095 8.90795 2.11715L8.8064 2.21865C8.3222 2.7029 8.27165 3.45865 8.654 4H8.12745C8.0825 3.93635 8.03195 3.8755 7.97505 3.8186L7.7721 3.6157C7.5429 3.3865 7.5429 3.01355 7.77205 2.78435L7.87355 2.6829C8.0298 2.5267 8.0298 2.27345 7.8736 2.1172C7.7174 1.961 7.46415 1.96095 7.3079 2.11715L7.20635 2.21865C6.72215 2.7029 6.6716 3.45865 7.05395 4H5.5028C4.8948 4 4.4 4.4948 4.4 5.10295ZM5.2 8.4V5.6V5.10295C5.2 4.9359 5.3359 4.8 5.50295 4.8H7.58135C7.58135 4.95055 7.52405 5.1011 7.40945 5.2157L7.308 5.31715C7.15175 5.47335 7.15175 5.7266 7.308 5.8828C7.3861 5.9609 7.48845 5.99995 7.59085 5.99995C7.69325 5.99995 7.7956 5.9609 7.8737 5.8828L7.97515 5.78135C8.2457 5.5108 8.381 5.1554 8.381 4.8H9.18135C9.18135 4.95055 9.12405 5.1011 9.00945 5.2157L8.908 5.31715C8.75175 5.47335 8.75175 5.7266 8.908 5.8828C8.9861 5.9609 9.08845 5.99995 9.19085 5.99995C9.29325 5.99995 9.3956 5.9609 9.4737 5.8828L9.57515 5.78135C9.8457 5.5108 9.981 5.1554 9.981 4.8H10.763C10.763 4.95055 10.7057 5.1011 10.5911 5.2157L10.4897 5.31715C10.3334 5.47335 10.3334 5.7266 10.4897 5.8828C10.5678 5.9609 10.6701 5.99995 10.7725 5.99995C10.8749 5.99995 10.9773 5.9609 11.0554 5.8828L11.1568 5.78135C11.4274 5.5108 11.5627 5.1554 11.5627 4.8H12.8972C13.0642 4.8 13.2001 4.9359 13.2001 5.10295V5.6V8.4C13.2001 10.6056 11.4057 12.4 9.2001 12.4C6.9945 12.4 5.2 10.6056 5.2 8.4ZM10.8 12.9255V14.0049C10.8 14.0056 10.8 14.0063 10.8 14.007V14.8C10.8 15.6823 10.0823 16.4 9.2 16.4C8.31775 16.4 7.6 15.6823 7.6 14.8V14.0071C7.6 14.0064 7.6 14.0057 7.6 14.005V12.9255C8.1007 13.1031 8.6392 13.2001 9.2 13.2001C9.7608 13.2001 10.2993 13.103 10.8 12.9255ZM17.6 19.6V23.2H14.4V19.6C14.4 19.3791 14.2209 19.2 14 19.2C13.7791 19.2 13.6 19.3791 13.6 19.6V23.2H4.8V19.6C4.8 19.3791 4.6209 19.2 4.4 19.2C4.1791 19.2 4 19.3791 4 19.6V23.2H0.8V19.6V18.489C0.8 17.1998 1.6639 16.0453 2.90085 15.6813L6.8 14.5346V14.8C6.8 16.1234 7.87665 17.2 9.2 17.2C10.5234 17.2 11.6 16.1234 11.6 14.8V14.5346L15.4991 15.6813C16.7361 16.0452 17.6 17.1998 17.6 18.489V19.6Z" fill="white"/>
<path d="M10.4284 10.9481C10.4909 11.1048 10.6412 11.2001 10.8001 11.2001C10.8494 11.2001 10.8996 11.1909 10.9481 11.1716C11.1533 11.0898 11.2534 10.8571 11.1716 10.6519C10.9207 10.0228 10.1284 9.6 9.19996 9.6C8.27151 9.6 7.47921 10.0228 7.22841 10.6519C7.14661 10.8571 7.24666 11.0898 7.45186 11.1716C7.65701 11.2534 7.88971 11.1534 7.97156 10.9482C8.07746 10.6824 8.54396 10.4 9.19996 10.4C9.85596 10.4 10.3225 10.6824 10.4284 10.9481ZM8.39996 7.2C8.39996 6.9791 8.22086 6.8 7.99996 6.8H6.79996C6.57906 6.8 6.39996 6.9791 6.39996 7.2C6.39996 7.4209 6.57906 7.6 6.79996 7.6H7.99996C8.22086 7.6 8.39996 7.4209 8.39996 7.2ZM10.4 7.6H11.6C11.8209 7.6 12 7.4209 12 7.2C12 6.9791 11.8209 6.8 11.6 6.8H10.4C10.1791 6.8 9.99996 6.9791 9.99996 7.2C9.99996 7.4209 10.1791 7.6 10.4 7.6ZM19.6 9.0109V1.6C19.6 0.71775 18.8822 0 18 0C17.1177 0 16.4 0.71775 16.4 1.6V9.0109C15.8891 9.466 15.6 10.1074 15.6 10.8C15.6 12.1234 16.6766 13.2 18 13.2C19.3233 13.2 20.4 12.1234 20.4 10.8C20.4 10.1074 20.1108 9.466 19.6 9.0109ZM18 12.4C17.1177 12.4 16.4 11.6823 16.4 10.8C16.4 10.2921 16.6333 9.82545 17.0402 9.5198C17.1408 9.44425 17.2 9.3258 17.2 9.2V1.6C17.2 1.1589 17.5589 0.8 18 0.8C18.4411 0.8 18.8 1.1589 18.8 1.6V9.2C18.8 9.3258 18.8592 9.44425 18.9597 9.5198C19.3666 9.82545 19.6 10.2921 19.6 10.8C19.6 11.6823 18.8822 12.4 18 12.4Z" fill="white"/>
<path d="M18.394 9.66677C18.3977 9.64502 18.4 9.62282 18.4 9.60002V3.20002C18.4 2.97912 18.2209 2.80002 18 2.80002C17.7791 2.80002 17.6 2.97912 17.6 3.20002V9.60002C17.6 9.62282 17.6024 9.64502 17.606 9.66677C17.1374 9.83022 16.8 10.2763 16.8 10.8C16.8 11.4617 17.3383 12 18 12C18.6617 12 19.2 11.4617 19.2 10.8C19.2 10.2763 18.8627 9.83022 18.394 9.66677ZM18 11.2C17.7795 11.2 17.6 11.0206 17.6 10.8C17.6 10.5795 17.7795 10.4 18 10.4C18.2206 10.4 18.4 10.5795 18.4 10.8C18.4 11.0206 18.2206 11.2 18 11.2Z" fill="white"/>
</svg>
