<svg width="26" height="27" viewBox="0 0 26 27" fill="none" xmlns="http://www.w3.org/2000/svg">
<path d="M8.87845 1H3.20586C1.9876 1 1 1.95673 1 3.13693V8.63225C1 9.81244 1.9876 10.7692 3.20586 10.7692H8.87845C10.0967 10.7692 11.0843 9.81244 11.0843 8.63225V3.13693C11.0843 1.95673 10.0967 1 8.87845 1Z" stroke="white" stroke-width="1.5" stroke-linecap="round" stroke-linejoin="round"/>
<path d="M22.7942 1H17.1216C15.9033 1 14.9157 1.95673 14.9157 3.13693V8.63225C14.9157 9.81244 15.9033 10.7692 17.1216 10.7692H22.7942C24.0124 10.7692 25 9.81244 25 8.63225V3.13693C25 1.95673 24.0124 1 22.7942 1Z" stroke="white" stroke-width="1.5" stroke-linecap="round" stroke-linejoin="round"/>
<path d="M8.87845 15.2391H3.20586C1.9876 15.2391 1 16.2267 1 17.4449V23.1175C1 24.3358 1.9876 25.3234 3.20586 25.3234H8.87845C10.0967 25.3234 11.0843 24.3358 11.0843 23.1175V17.4449C11.0843 16.2267 10.0967 15.2391 8.87845 15.2391Z" stroke="white" stroke-width="1.5" stroke-linecap="round" stroke-linejoin="round"/>
<path d="M22.7942 15.2391H17.1216C15.9033 15.2391 14.9157 16.2267 14.9157 17.4449V23.1175C14.9157 24.3358 15.9033 25.3234 17.1216 25.3234H22.7942C24.0124 25.3234 25 24.3358 25 23.1175V17.4449C25 16.2267 24.0124 15.2391 22.7942 15.2391Z" stroke="white" stroke-width="1.5" stroke-linecap="round" stroke-linejoin="round"/>
</svg>
