<svg width="25" height="24" viewBox="0 0 25 24" fill="none" xmlns="http://www.w3.org/2000/svg">
<path d="M4.28202 9.0611H9.32479C9.40529 9.0611 9.48248 9.02913 9.5394 8.97221C9.59632 8.91529 9.62829 8.8381 9.62829 8.7576C9.62829 8.67711 9.59632 8.59991 9.5394 8.54299C9.48248 8.48608 9.40529 8.4541 9.32479 8.4541H4.28202C4.20152 8.4541 4.12433 8.48608 4.06741 8.54299C4.01049 8.59991 3.97852 8.67711 3.97852 8.7576C3.97852 8.8381 4.01049 8.91529 4.06741 8.97221C4.12433 9.02913 4.20152 9.0611 4.28202 9.0611ZM14.1092 11.7926H4.28202C4.20152 11.7926 4.12433 11.8246 4.06741 11.8815C4.01049 11.9384 3.97852 12.0156 3.97852 12.0961C3.97852 12.1766 4.01049 12.2538 4.06741 12.3107C4.12433 12.3676 4.20152 12.3996 4.28202 12.3996H14.1092C14.1897 12.3996 14.2669 12.3676 14.3238 12.3107C14.3807 12.2538 14.4127 12.1766 14.4127 12.0961C14.4127 12.0156 14.3807 11.9384 14.3238 11.8815C14.2669 11.8246 14.1897 11.7926 14.1092 11.7926ZM14.1092 15.1311H4.28202C4.20152 15.1311 4.12433 15.1631 4.06741 15.22C4.01049 15.2769 3.97852 15.3541 3.97852 15.4346C3.97852 15.5151 4.01049 15.5923 4.06741 15.6492C4.12433 15.7062 4.20152 15.7381 4.28202 15.7381H14.1092C14.1897 15.7381 14.2669 15.7062 14.3238 15.6492C14.3807 15.5923 14.4127 15.5151 14.4127 15.4346C14.4127 15.3541 14.3807 15.2769 14.3238 15.22C14.2669 15.1631 14.1897 15.1311 14.1092 15.1311Z" fill="white"/>
<path d="M18.9009 1.28442e-06C17.6346 -0.000866693 16.4072 0.438207 15.4288 1.24215C14.4503 2.04608 13.7815 3.16496 13.5367 4.40745H0.313618C0.146035 4.40745 0 4.52379 0 4.69132V23.1298C0.00178471 23.2433 0.0360885 23.354 0.0988456 23.4487C0.161603 23.5433 0.250182 23.618 0.354085 23.6638C0.466053 23.7164 0.590602 23.7362 0.71335 23.721C0.836098 23.7058 0.95204 23.6562 1.04779 23.5779L3.19455 21.788C3.20195 21.7818 3.21111 21.7782 3.22071 21.7776C3.23031 21.777 3.23985 21.7795 3.24792 21.7848L5.8208 23.8612C5.93665 23.952 6.07981 24.0009 6.22698 24C6.37416 23.9991 6.51669 23.9484 6.6314 23.8562L9.16796 21.7865C9.17525 21.7804 9.18429 21.7769 9.19375 21.7764C9.2032 21.7759 9.21257 21.7784 9.22047 21.7837L11.7641 23.8591C11.8789 23.9502 12.0211 23.9999 12.1677 23.9999C12.3153 23.9997 12.4586 23.9498 12.5746 23.8583L15.1401 21.7874C15.1474 21.7813 15.1564 21.7778 15.1659 21.7774C15.1753 21.7769 15.1847 21.7795 15.1926 21.7847L17.342 23.5777C17.4353 23.6558 17.5491 23.7055 17.6699 23.7208C17.7907 23.736 17.9133 23.7162 18.0231 23.6636C18.1252 23.617 18.2116 23.5417 18.2718 23.4469C18.3319 23.3521 18.3633 23.2419 18.362 23.1296V10.9056C18.5643 10.9218 18.7161 10.9304 18.8911 10.9304C21.9073 10.9304 24.3662 8.48145 24.3662 5.4652C24.3655 4.01596 23.7894 2.62629 22.7646 1.60153C21.7399 0.576768 20.3502 0.000738441 18.9009 1.28442e-06ZM17.7548 23.1144C17.7548 23.119 17.7346 23.123 17.7208 23.1115L15.5727 21.3155C15.4579 21.2221 15.3147 21.1708 15.1668 21.1703C15.0189 21.1697 14.8752 21.2198 14.7598 21.3122L12.1957 23.3831C12.1885 23.3891 12.1796 23.3926 12.1702 23.3931C12.1609 23.3936 12.1516 23.3911 12.1438 23.3858L9.6004 21.3104C9.4847 21.2187 9.34122 21.169 9.19354 21.1695C9.04585 21.17 8.90273 21.2207 8.78768 21.3133L6.25137 23.383C6.24406 23.389 6.23501 23.3925 6.22555 23.3931C6.21608 23.3936 6.20669 23.3911 6.19876 23.3859L3.62628 21.3094C3.50968 21.2177 3.36523 21.1687 3.2169 21.1703C3.06857 21.172 2.92526 21.2243 2.81073 21.3185L0.65622 23.1115C0.642259 23.123 0.607003 23.1191 0.607003 23.1144V5.01445H13.4509C13.4379 5.1662 13.4209 5.3133 13.4209 5.47011C13.4205 6.72285 13.851 7.93761 14.6401 8.91056C15.4292 9.88351 16.529 10.5554 17.7548 10.8136V23.1144ZM18.9009 10.3234C17.9391 10.3234 16.9989 10.0382 16.1992 9.50379C15.3994 8.96942 14.7761 8.2099 14.4081 7.32129C14.04 6.43267 13.9437 5.45486 14.1313 4.51152C14.319 3.56817 14.7822 2.70165 15.4623 2.02154C16.1424 1.34143 17.0089 0.87827 17.9523 0.69063C18.8956 0.50299 19.8734 0.599299 20.762 0.967377C21.6507 1.33546 22.4102 1.95877 22.9445 2.7585C23.4789 3.55824 23.7641 4.49847 23.7641 5.46029C23.7627 6.74963 23.2498 7.98575 22.3381 8.89745C21.4264 9.80914 20.1903 10.322 18.9009 10.3234Z" fill="white"/>
<path d="M20.7902 3.41328C20.7902 3.23673 20.6438 3.09229 20.4647 3.09229H17.1705C16.9914 3.09229 16.8449 3.23673 16.8449 3.41328C16.8449 3.58983 16.9914 3.73427 17.1705 3.73427H18.1145C18.5865 3.73748 19.0031 4.0328 19.1529 4.47256H17.1705C16.9914 4.47256 16.8449 4.61701 16.8449 4.79355C16.8449 4.9701 16.9914 5.11455 17.1705 5.11455H19.1529C19.1008 5.28146 19.0064 5.43554 18.8827 5.56073C18.6809 5.76617 18.4042 5.88172 18.1145 5.88493H17.1705C16.9979 5.87851 16.8514 6.01333 16.8449 6.18346C16.8417 6.27334 16.8775 6.36321 16.9458 6.4242L19.3026 8.6198C19.4328 8.74178 19.6412 8.73536 19.7616 8.60375C19.882 8.48178 19.8788 8.28597 19.7551 8.1672C19.7518 8.16399 19.7486 8.16399 19.7486 8.16078L17.9875 6.52692H18.1112C18.5734 6.52371 19.0162 6.34075 19.3417 6.01654C19.5923 5.77259 19.7616 5.45801 19.8202 5.11455H20.4647C20.6438 5.11455 20.7902 4.9701 20.7902 4.79355C20.7902 4.61701 20.6438 4.47256 20.4647 4.47256H19.8202C19.7746 4.19971 19.6509 3.94292 19.4654 3.73427H20.4615C20.6438 3.73427 20.7902 3.58983 20.7902 3.41328Z" fill="white"/>
</svg>
