<svg width="24" height="24" viewBox="0 0 24 24" fill="none" xmlns="http://www.w3.org/2000/svg">
<path d="M7.67898 0.0109308C5.02265 0.0761213 2.47123 1.4751 1.05202 3.94484C0.378991 5.11377 0.0169814 6.43576 0.00058304 7.78449C-0.0158153 9.13322 0.313946 10.4636 0.958355 11.6486L1.02804 11.7894V12.2106L0.958355 12.3514C0.313946 13.5364 -0.0158153 14.8668 0.00058304 16.2155C0.0169814 17.5642 0.378991 18.8862 1.05202 20.0552C2.67429 22.8778 5.78246 24.3128 8.82618 23.9426C9.8734 23.8171 10.8847 23.4825 11.8002 22.9588L11.9403 22.8651L12.1044 22.9588C13.0114 23.4822 14.0149 23.8168 15.0545 23.9426C18.0982 24.3128 21.2064 22.8778 22.8287 20.0552C23.5017 18.8862 23.8637 17.5642 23.8801 16.2155C23.8965 14.8668 23.5667 13.5364 22.9223 12.3514L22.759 12.0465V11.9528L22.9223 11.6486C23.5667 10.4636 23.8965 9.13322 23.8801 7.78449C23.8637 6.43576 23.5017 5.11377 22.8287 3.94484C21.2064 1.12217 18.0982 -0.312774 15.0545 0.0573884C14.0399 0.181026 13.0448 0.500235 12.1044 1.04124L11.9403 1.13491L11.7995 1.04124C10.8845 0.517655 9.87364 0.183094 8.82693 0.0573884C8.44591 0.0141543 8.06225 -0.00137239 7.67898 0.0109308ZM8.05364 0.760248C8.87214 0.784429 9.6802 0.950757 10.4417 1.2518C9.47435 1.38103 8.52904 1.64118 7.63177 2.02509C7.62371 2.03225 7.61596 2.03975 7.60854 2.04757C6.21998 2.65286 4.97224 3.5399 3.94436 4.65253C2.91648 5.76515 2.13085 7.07911 1.63724 8.51118C1.63424 8.52017 1.617 8.52467 1.61401 8.53441C1.59396 8.56326 1.57807 8.59479 1.5668 8.62807C1.54957 8.68128 1.53683 8.73822 1.52034 8.79217C1.44166 9.04245 1.36973 9.30621 1.30978 9.56472C1.25733 9.78952 1.20713 10.0143 1.16891 10.2436C0.826895 9.27558 0.69797 8.24512 0.790954 7.22268C0.883939 6.20024 1.19664 5.20994 1.70767 4.3195C3.05644 1.97414 5.52919 0.698054 8.05364 0.760248ZM15.8271 0.760248C18.3582 0.698054 20.8475 1.97414 22.1962 4.3195C23.2828 6.21003 23.4064 8.48046 22.6181 10.4781C22.5859 10.2593 22.5694 10.036 22.5244 9.82248C22.3758 9.11529 22.1562 8.42491 21.8688 7.76186C21.859 7.73938 21.8553 7.71466 21.8456 7.69143C21.2392 6.31024 20.3543 5.06907 19.2463 4.04558C18.1382 3.0221 16.8308 2.23834 15.4059 1.74335C15.3985 1.73553 15.3908 1.72803 15.3827 1.72087C15.3752 1.71787 15.3662 1.72237 15.3587 1.72087C15.3299 1.70082 15.2983 1.68493 15.2651 1.67366C14.6776 1.48034 14.0662 1.34247 13.439 1.2518C14.2007 0.95054 15.0083 0.784205 15.8271 0.760248ZM11.753 1.88422H11.8939C12.2408 1.88422 12.5848 1.91944 12.9234 1.95466C13.0463 1.97114 13.1767 1.98014 13.2981 2.00112C13.3228 2.00486 13.3446 2.02135 13.3685 2.02435C13.7949 2.10512 14.217 2.2069 14.6334 2.32932L13.3453 5.81814C12.8777 5.71023 12.3952 5.63081 11.8931 5.63081C11.5462 5.63081 11.2135 5.66228 10.8868 5.72447C10.5564 5.77692 10.2379 5.8586 9.92693 5.95901L8.33388 2.5631C8.88838 2.35329 9.47284 2.18845 10.0671 2.07155C10.6141 1.97039 11.179 1.89172 11.753 1.88422ZM15.3595 2.51665C17.8661 3.44604 19.9086 5.32074 21.049 7.73863L17.6771 9.30696C16.9698 7.7806 15.6674 6.60492 14.0714 6.02869L15.3595 2.51665ZM7.65425 2.84335L9.22332 6.2385C8.46538 6.58458 7.78344 7.07726 7.21681 7.68813C6.65018 8.299 6.21006 9.01599 5.92183 9.79776L2.40903 8.51193C3.34689 6.00832 5.23052 3.9732 7.65425 2.84485V2.84335ZM11.8931 6.38012C12.1726 6.38012 12.4476 6.4101 12.7129 6.45056C12.7369 6.45356 12.7593 6.47004 12.7833 6.47379C13.0231 6.5135 13.2554 6.54722 13.4862 6.61466C13.5004 6.61841 13.5184 6.61016 13.5326 6.61466C13.5401 6.62248 13.5478 6.62998 13.5559 6.63714C14.3567 6.87531 15.0931 7.29205 15.7097 7.856C16.3262 8.41994 16.8067 9.11639 17.1151 9.89292C17.1149 9.90041 17.1149 9.90791 17.1151 9.9154C17.1668 10.0473 17.214 10.1777 17.256 10.314C17.3099 10.4909 17.3594 10.6917 17.3961 10.876C17.4014 10.9 17.4156 10.9225 17.4201 10.9465C17.4441 11.0761 17.4508 11.211 17.4666 11.3443C17.4905 11.5616 17.5138 11.7775 17.5138 12C17.5138 12.2787 17.4838 12.5545 17.4433 12.8198C17.4029 13.0843 17.3534 13.3383 17.2792 13.5923C17.2782 13.608 17.2782 13.6238 17.2792 13.6395C17.2747 13.6552 17.2605 13.6695 17.256 13.686C17.2558 13.6937 17.2558 13.7015 17.256 13.7092C17.016 14.4865 16.6086 15.2018 16.0624 15.8046C15.5162 16.4075 14.8445 16.8834 14.0946 17.1988C14.0547 17.2 14.0153 17.2076 13.9777 17.2212C13.9615 17.2281 13.9457 17.2361 13.9305 17.2452C13.2812 17.4968 12.5903 17.6239 11.8939 17.6199C11.3544 17.6182 10.8179 17.5392 10.3008 17.3853C10.2633 17.3717 10.2239 17.3641 10.1839 17.3629C9.39269 17.1166 8.66658 16.6964 8.05886 16.1331C7.45115 15.5697 6.97724 14.8774 6.6719 14.1071C6.6629 14.0846 6.65691 14.0606 6.64867 14.0374C6.60296 13.919 6.56849 13.8074 6.53102 13.686C6.47541 13.5088 6.42864 13.329 6.3909 13.1472C6.38416 13.1165 6.37292 13.085 6.36767 13.0535C6.35119 12.9681 6.33246 12.8827 6.32047 12.7965C6.30848 12.7111 6.30548 12.6242 6.29724 12.5388C6.28137 12.3596 6.27362 12.1798 6.27401 12C6.27401 11.779 6.29649 11.5819 6.32047 11.3676C6.33845 11.2102 6.36093 11.0529 6.3909 10.8993L6.41413 10.7824C6.44335 10.6505 6.47108 10.5111 6.5078 10.3845C6.50804 10.3767 6.50804 10.369 6.5078 10.3612C6.75044 9.54277 7.17892 8.79144 7.75979 8.16585C8.34067 7.54026 9.05823 7.05735 9.85649 6.75478C10.1427 6.64463 10.441 6.55996 10.7459 6.49702C11.1235 6.42033 11.5078 6.38118 11.8931 6.38012ZM21.33 8.44074C21.4349 8.71799 21.5279 9.01922 21.611 9.30696C21.6949 9.59469 21.7631 9.87644 21.8223 10.1732C21.9471 10.7741 22.0099 11.3862 22.0097 12C22.0097 12.9531 21.8148 13.8403 21.5646 14.7163L18.099 13.4514C18.1529 13.2169 18.1649 12.9704 18.1926 12.7261C18.2189 12.4871 18.2623 12.2465 18.2623 12C18.2609 11.7807 18.2454 11.5617 18.2159 11.3443C18.2034 11.2268 18.1877 11.1096 18.1687 10.9929C18.1664 10.9779 18.1717 10.9614 18.1687 10.9465C18.1162 10.6243 18.057 10.3125 17.9589 10.0098L21.33 8.44074ZM2.22245 9.2605L5.68804 10.5246C5.57681 11.0084 5.52199 11.5035 5.52469 12C5.52469 12.1738 5.52844 12.3492 5.54717 12.5155C5.58689 13.0123 5.68355 13.5091 5.82891 13.967L2.45699 15.536C2.24562 14.9808 2.08119 14.4088 1.96544 13.8261C1.90425 13.532 1.85723 13.2352 1.82457 12.9366C1.80658 12.7621 1.80883 12.5755 1.80134 12.3979C1.79609 12.2653 1.77811 12.1341 1.77811 12C1.77811 11.8651 1.79309 11.7355 1.80059 11.6021C1.80508 11.5002 1.79384 11.3983 1.80059 11.2979C1.80508 11.2567 1.82007 11.2207 1.82457 11.1802C1.84555 10.9884 1.86203 10.8071 1.895 10.6183C1.97443 10.1627 2.09732 9.69885 2.22245 9.2605ZM22.6413 13.5458C23.4169 15.536 23.2783 17.7997 22.197 19.6805C20.4144 22.7804 16.6491 24.016 13.415 22.7482C17.5123 22.1622 20.8819 19.2744 22.173 15.4424C22.1931 15.4135 22.209 15.382 22.2202 15.3487C22.233 15.3082 22.2539 15.2715 22.2667 15.2311C22.2959 15.1389 22.3109 15.0437 22.3371 14.9501C22.4703 14.4892 22.572 14.0205 22.6413 13.5458ZM1.16891 13.7556C1.25134 14.2614 1.36973 14.7515 1.52034 15.2318C1.6275 15.5705 1.75713 15.8905 1.895 16.2149C1.90603 16.2481 1.92167 16.2797 1.94146 16.3086C3.17034 19.1223 5.54118 21.323 8.47475 22.3031C8.48215 22.3112 8.4899 22.3189 8.49798 22.3263C8.50547 22.3286 8.51447 22.3241 8.52121 22.3263C8.5377 22.3316 8.55193 22.3443 8.56842 22.3503C8.66583 22.3818 8.77373 22.3915 8.87264 22.42C9.0757 22.4799 9.27352 22.5369 9.48183 22.5841C9.79655 22.656 10.118 22.7272 10.4417 22.7714C8.85671 23.3847 7.10452 23.4101 5.50239 22.8431C3.90026 22.2761 2.55411 21.1542 1.70767 19.6805C1.19664 18.7901 0.883939 17.7998 0.790954 16.7773C0.69797 15.7549 0.826895 14.7237 1.16891 13.7556ZM17.8884 14.1775L21.3772 15.4656C20.4496 17.9866 18.5647 20.0398 16.132 21.1791L14.5862 17.784C15.3483 17.4319 16.0328 16.9317 16.5997 16.3126C17.1666 15.6934 17.6047 14.9676 17.8884 14.1775ZM6.10916 14.6698C6.45819 15.4298 6.95466 16.1129 7.56976 16.6795C8.18487 17.2461 8.90636 17.685 9.69239 17.9706L8.40432 21.4826C5.89197 20.5499 3.8478 18.6656 2.714 16.2374L6.10991 14.6691L6.10916 14.6698ZM13.8841 18.0642L15.4524 21.4361C14.3434 21.858 13.146 22.1158 11.8931 22.1158H11.753C11.5402 22.1128 11.3304 22.1083 11.1206 22.0925C10.4462 22.0229 9.79055 21.8528 9.15363 21.6707L10.4185 18.2051C10.9023 18.3166 11.3974 18.3716 11.8939 18.3692C12.5907 18.3692 13.2576 18.268 13.8841 18.0642Z" fill="white"/>
</svg>
