<svg width="17" height="16" viewBox="0 0 17 16" fill="none" xmlns="http://www.w3.org/2000/svg">
<path d="M11.67 10.2203C12.6175 9.1395 13.216 7.7533 13.216 6.22614C13.216 2.79589 10.2486 0 6.60799 0C2.96736 0 0 2.79589 0 6.22614C0 9.65639 2.96736 12.4523 6.60799 12.4523C8.20389 12.4523 9.70004 11.9119 10.8471 10.9956L15.9839 15.8355C16.1085 15.953 16.2582 16 16.4078 16C16.5574 16 16.707 15.953 16.8317 15.8355C17.0561 15.6241 17.0561 15.2482 16.8317 15.0367L11.67 10.2203ZM6.58306 11.3245C3.59076 11.3245 1.17198 9.04552 1.17198 6.22614C1.17198 3.40676 3.59076 1.12775 6.58306 1.12775C9.57536 1.12775 11.9941 3.40676 11.9941 6.22614C11.9941 9.04552 9.57536 11.3245 6.58306 11.3245Z" fill="#525252"/>
</svg>
