<svg width="22" height="24" viewBox="0 0 22 24" fill="none" xmlns="http://www.w3.org/2000/svg">
<path d="M20.1759 2.10938H18.2264V1.26562C18.2264 0.92996 18.0928 0.608044 17.855 0.370693C17.6171 0.133342 17.2945 0 16.9581 0C16.6217 0 16.2991 0.133342 16.0613 0.370693C15.8234 0.608044 15.6898 0.92996 15.6898 1.26562V2.10938H6.24772V1.26562C6.24772 0.92996 6.1141 0.608044 5.87624 0.370693C5.63838 0.133342 5.31577 2.66711e-08 4.97939 2.66711e-08C4.64301 2.66711e-08 4.3204 0.133342 4.08254 0.370693C3.84468 0.608044 3.71105 0.92996 3.71105 1.26562V2.10938H1.76158C1.29454 2.1099 0.846777 2.29526 0.516531 2.6248C0.186284 2.95434 0.000522207 3.40115 0 3.86719V22.2422C0.000522207 22.7082 0.186284 23.155 0.516531 23.4846C0.846777 23.8141 1.29454 23.9995 1.76158 24H20.1759C20.643 23.9995 21.0907 23.8141 21.421 23.4846C21.7512 23.155 21.937 22.7082 21.9375 22.2422V3.86719C21.937 3.40115 21.7512 2.95434 21.421 2.6248C21.0907 2.29526 20.643 2.1099 20.1759 2.10938ZM16.3944 1.26562C16.3944 1.11644 16.4538 0.973367 16.5595 0.867877C16.6652 0.762388 16.8086 0.703125 16.9581 0.703125C17.1076 0.703125 17.251 0.762388 17.3567 0.867877C17.4624 0.973367 17.5218 1.11644 17.5218 1.26562V3.73969C17.5218 3.88887 17.4624 4.03195 17.3567 4.13744C17.251 4.24292 17.1076 4.30219 16.9581 4.30219C16.8086 4.30219 16.6652 4.24292 16.5595 4.13744C16.4538 4.03195 16.3944 3.88887 16.3944 3.73969V1.26562ZM4.41568 1.26562C4.41568 1.11644 4.47507 0.973367 4.58079 0.867877C4.68651 0.762388 4.82989 0.703125 4.97939 0.703125C5.12889 0.703125 5.27227 0.762388 5.37799 0.867877C5.4837 0.973367 5.54309 1.11644 5.54309 1.26562V3.73969C5.54309 3.88887 5.4837 4.03195 5.37799 4.13744C5.27227 4.24292 5.12889 4.30219 4.97939 4.30219C4.82989 4.30219 4.68651 4.24292 4.58079 4.13744C4.47507 4.03195 4.41568 3.88887 4.41568 3.73969V1.26562ZM21.2329 22.2422C21.2325 22.5218 21.1211 22.7899 20.9229 22.9876C20.7248 23.1853 20.4561 23.2966 20.1759 23.2969H1.76158C1.48136 23.2966 1.21271 23.1853 1.01456 22.9876C0.816414 22.7899 0.704954 22.5218 0.704631 22.2422V7.31095H21.2329V22.2422ZM21.2329 6.60783H0.704631V3.86719C0.704954 3.58757 0.816414 3.31949 1.01456 3.12177C1.21271 2.92404 1.48136 2.81282 1.76158 2.8125H3.71105V3.73969C3.71105 4.07535 3.84468 4.39727 4.08254 4.63462C4.3204 4.87197 4.64301 5.00531 4.97939 5.00531C5.31577 5.00531 5.63838 4.87197 5.87624 4.63462C6.1141 4.39727 6.24772 4.07535 6.24772 3.73969V2.8125H15.6898V3.73969C15.6898 4.07535 15.8234 4.39727 16.0613 4.63462C16.2991 4.87197 16.6217 5.00531 16.9581 5.00531C17.2945 5.00531 17.6171 4.87197 17.855 4.63462C18.0928 4.39727 18.2264 4.07535 18.2264 3.73969V2.8125H20.1759C20.4561 2.81282 20.7248 2.92404 20.9229 3.12177C21.1211 3.31949 21.2325 3.58757 21.2329 3.86719V6.60783ZM19.4713 21.8903C19.541 21.8903 19.6091 21.8697 19.667 21.8311C19.725 21.7925 19.7701 21.7376 19.7968 21.6733C19.8235 21.6091 19.8304 21.5384 19.8168 21.4702C19.8032 21.402 19.7697 21.3394 19.7204 21.2902C19.6711 21.241 19.6084 21.2075 19.54 21.194C19.4717 21.1804 19.4008 21.1874 19.3365 21.214C19.2721 21.2406 19.2171 21.2856 19.1784 21.3435C19.1396 21.4013 19.119 21.4692 19.119 21.5388C19.119 21.632 19.1561 21.7214 19.2222 21.7874C19.2882 21.8533 19.3779 21.8903 19.4713 21.8903ZM14.8504 13.8656C14.8504 13.7961 14.8298 13.7281 14.791 13.6703C14.7523 13.6125 14.6973 13.5674 14.6329 13.5408C14.5686 13.5142 14.4977 13.5073 14.4294 13.5208C14.361 13.5344 14.2983 13.5679 14.249 13.617C14.1997 13.6662 14.1662 13.7288 14.1526 13.797C14.139 13.8652 14.1459 13.9359 14.1726 14.0002C14.1993 14.0644 14.2444 14.1193 14.3024 14.1579C14.3603 14.1966 14.4284 14.2172 14.4981 14.2172C14.5915 14.2172 14.6812 14.1801 14.7472 14.1142C14.8133 14.0483 14.8504 13.9589 14.8504 13.8656ZM8.52603 16.5184V18.0633C8.52603 18.9002 8.85919 19.7028 9.45221 20.2946C10.0452 20.8863 10.8496 21.2188 11.6882 21.2188C12.5269 21.2188 13.3312 20.8863 13.9242 20.2946C14.5173 19.7028 14.8504 18.9002 14.8504 18.0633V15.588C15.2781 15.5009 15.6582 15.2584 15.9169 14.9076C16.1757 14.5567 16.2946 14.1225 16.2508 13.6891C16.2069 13.2557 16.0033 12.854 15.6795 12.5618C15.3556 12.2697 14.9346 12.1079 14.4981 12.1079C14.0616 12.1079 13.6406 12.2697 13.3167 12.5618C12.9929 12.854 12.7893 13.2557 12.7454 13.6891C12.7016 14.1225 12.8205 14.5567 13.0793 14.9076C13.338 15.2584 13.7181 15.5009 14.1458 15.588V18.0633C14.1458 18.7137 13.8869 19.3375 13.426 19.7974C12.9651 20.2573 12.34 20.5156 11.6882 20.5156C11.0364 20.5156 10.4113 20.2573 9.95046 19.7974C9.48958 19.3375 9.23066 18.7137 9.23066 18.0633V16.5184C10.0367 16.4307 10.7819 16.0494 11.3237 15.4475C11.8654 14.8455 12.1656 14.0653 12.1666 13.2562V10.6078C12.1664 10.44 12.0996 10.2792 11.9807 10.1606C11.8618 10.0419 11.7006 9.97519 11.5325 9.975H10.9035C10.8259 9.84096 10.7062 9.73619 10.5629 9.67696C10.4196 9.61773 10.2607 9.60734 10.1109 9.6474C9.96107 9.68746 9.82868 9.77573 9.73425 9.89853C9.63982 10.0213 9.58864 10.1718 9.58864 10.3266C9.58864 10.4813 9.63982 10.6318 9.73425 10.7546C9.82868 10.8774 9.96107 10.9657 10.1109 11.0057C10.2607 11.0458 10.4196 11.0354 10.5629 10.9762C10.7062 10.9169 10.8259 10.8122 10.9035 10.6781H11.462V13.2562C11.462 13.94 11.1898 14.5958 10.7053 15.0793C10.2207 15.5628 9.56357 15.8344 8.87835 15.8344C8.19312 15.8344 7.53596 15.5628 7.05143 15.0793C6.5669 14.5958 6.2947 13.94 6.2947 13.2562V10.6781H6.86583C6.94338 10.8122 7.0631 10.9169 7.2064 10.9762C7.34971 11.0354 7.5086 11.0458 7.65843 11.0057C7.80825 10.9657 7.94065 10.8774 8.03507 10.7546C8.1295 10.6318 8.18068 10.4813 8.18068 10.3266C8.18068 10.1718 8.1295 10.0213 8.03507 9.89853C7.94065 9.77573 7.80825 9.68746 7.65843 9.6474C7.5086 9.60734 7.34971 9.61773 7.2064 9.67696C7.0631 9.73619 6.94338 9.84096 6.86583 9.975H6.22424C6.0561 9.97519 5.89491 10.0419 5.77602 10.1606C5.65713 10.2792 5.59026 10.44 5.59007 10.6078V13.2562C5.59111 14.0653 5.89126 14.8455 6.433 15.4475C6.97475 16.0494 7.72002 16.4307 8.52603 16.5184ZM13.4412 13.8656C13.4412 13.657 13.5031 13.4531 13.6193 13.2797C13.7354 13.1062 13.9005 12.971 14.0936 12.8912C14.2868 12.8114 14.4993 12.7905 14.7043 12.8312C14.9093 12.8719 15.0977 12.9723 15.2455 13.1198C15.3933 13.2673 15.494 13.4553 15.5347 13.6599C15.5755 13.8645 15.5546 14.0765 15.4746 14.2692C15.3946 14.462 15.2591 14.6267 15.0853 14.7426C14.9115 14.8585 14.7071 14.9203 14.4981 14.9203C14.2179 14.92 13.9492 14.8088 13.7511 14.611C13.5529 14.4133 13.4415 14.1452 13.4412 13.8656ZM16.6528 21.8903C16.7225 21.8903 16.7906 21.8697 16.8485 21.8311C16.9064 21.7925 16.9516 21.7376 16.9783 21.6733C17.0049 21.6091 17.0119 21.5384 16.9983 21.4702C16.9847 21.402 16.9512 21.3394 16.9019 21.2902C16.8526 21.241 16.7898 21.2075 16.7215 21.194C16.6532 21.1804 16.5823 21.1874 16.5179 21.214C16.4536 21.2406 16.3985 21.2856 16.3598 21.3435C16.3211 21.4013 16.3005 21.4692 16.3005 21.5388C16.3005 21.632 16.3376 21.7214 16.4036 21.7874C16.4697 21.8533 16.5593 21.8903 16.6528 21.8903ZM18.062 21.8903C18.1317 21.8903 18.1998 21.8697 18.2578 21.8311C18.3157 21.7925 18.3609 21.7376 18.3875 21.6733C18.4142 21.6091 18.4212 21.5384 18.4076 21.4702C18.394 21.402 18.3604 21.3394 18.3112 21.2902C18.2619 21.241 18.1991 21.2075 18.1308 21.194C18.0624 21.1804 17.9916 21.1874 17.9272 21.214C17.8628 21.2406 17.8078 21.2856 17.7691 21.3435C17.7304 21.4013 17.7097 21.4692 17.7097 21.5388C17.7097 21.632 17.7468 21.7214 17.8129 21.7874C17.879 21.8533 17.9686 21.8903 18.062 21.8903Z" fill="white"/>
</svg>
